<svg width="27.000000" height="27.000000" viewBox="0 0 27 27" fill="none" xmlns="http://www.w3.org/2000/svg" xmlns:xlink="http://www.w3.org/1999/xlink">
	<desc>
			Created with Pixso.
	</desc>
	<defs/>
	<path id="Vector" d="M21.79 16.99C22.52 15.25 22.69 13.33 22.27 11.5C21.85 9.66 20.87 8 19.46 6.76C18.06 5.51 16.29 4.73 14.42 4.54C12.55 4.35 10.66 4.75 9.03 5.68L7.91 3.73C9.62 2.75 11.55 2.24 13.52 2.24C15.49 2.25 17.42 2.77 19.12 3.75C24.17 6.67 26.11 12.91 23.75 18.12L25.26 18.99L20.58 21.48L20.39 16.18L21.79 16.99ZM5.2 10C4.47 11.74 4.3 13.66 4.72 15.49C5.14 17.33 6.12 18.99 7.53 20.23C8.93 21.48 10.7 22.26 12.57 22.45C14.44 22.64 16.33 22.24 17.96 21.31L19.08 23.26C17.37 24.24 15.44 24.75 13.47 24.75C11.5 24.74 9.57 24.22 7.87 23.24C2.82 20.32 0.88 14.08 3.24 8.87L1.73 8L6.41 5.51L6.6 10.81L5.2 10.01L5.2 10ZM15.09 16.68L11.9 13.5L8.72 16.68L7.13 15.09L11.9 10.31L15.09 13.5L18.27 10.31L19.86 11.9L15.09 16.68L15.09 16.68Z" fill="#7F8796" fill-opacity="1.000000" fill-rule="nonzero"/>
	<path id="Vector" d="M15.09 16.68L11.9 13.5L8.72 16.68L7.13 15.09L11.9 10.31L15.09 13.5L18.27 10.31L19.86 11.9L15.09 16.68L15.09 16.68Z" fill="#F03C2E" fill-opacity="1.000000" fill-rule="nonzero"/>
</svg>
