<svg width="24.000000" height="24.000000" viewBox="0 0 24 24" fill="none" xmlns="http://www.w3.org/2000/svg" xmlns:xlink="http://www.w3.org/1999/xlink">
	<desc>
			Created with Pixso.
	</desc>
	<defs/>
	<path id="Vector" d="M3 2.99C3 2.44 3.44 2 3.99 2L20 2C20.26 2 20.52 2.1 20.7 2.29C20.89 2.47 20.99 2.72 21 2.99L21 21C20.99 21.27 20.89 21.52 20.7 21.7C20.52 21.89 20.27 22 20 22L3.99 22C3.73 21.99 3.47 21.89 3.29 21.7C3.1 21.52 3 21.27 3 21L3 2.99ZM19 11L19 4L5 4L5 11L19 11ZM19 13L5 13L5 20L19 20L19 13ZM9 6L15 6L15 8L9 8L9 6ZM9 15L15 15L15 17L9 17L9 15Z" fill="#7F8796" fill-opacity="1.000000" fill-rule="nonzero"/>
	<path id="Vector" d="M9 6L15 6L15 8L9 8L9 6ZM9 15L15 15L15 17L9 17L9 15Z" fill="#F03C2E" fill-opacity="1.000000" fill-rule="nonzero"/>
</svg>
