<svg width="24.000000" height="24.000000" viewBox="0 0 24 24" fill="none" xmlns="http://www.w3.org/2000/svg" xmlns:xlink="http://www.w3.org/1999/xlink">
	<desc>
			Created with Pixso.
	</desc>
	<defs/>
	<path id="Vector" d="M20 18L22 18L22 20L2 20L2 18L4 18L4 10C4 7.87 4.84 5.84 6.34 4.34C7.84 2.84 9.87 2 12 2C14.12 2 16.15 2.84 17.65 4.34C19.15 5.84 20 7.87 20 10L20 18ZM18 18L18 10C18 8.4 17.36 6.88 16.24 5.75C15.11 4.63 13.59 4 12 4C10.4 4 8.88 4.63 7.75 5.75C6.63 6.88 6 8.4 6 10L6 18L18 18ZM9 21L15 21L15 23L9 23L9 21Z" fill="#7F8796" fill-opacity="1.000000" fill-rule="nonzero"/>
	<path id="Vector" d="M13 10L16 10L11 17L11 12L8 12L13 5L13 10Z" fill="#F03C2E" fill-opacity="1.000000" fill-rule="nonzero"/>
</svg>
