<svg width="24.000000" height="24.000000" viewBox="0 0 24 24" fill="none" xmlns="http://www.w3.org/2000/svg" xmlns:xlink="http://www.w3.org/1999/xlink">
	<desc>
			Created with Pixso.
	</desc>
	<defs/>
	<path id="Vector" d="M11 7L13 7L13 17L11 17L11 7ZM15 11L17 11L17 17L15 17L15 11ZM7 13L9 13L9 17L7 17L7 13ZM15 4L5 4L5 20L19 20L19 8L15 8L15 4ZM3 2.99C3 2.44 3.44 2 3.99 2L16 2L21 7L21 20.99C21 21.12 20.97 21.25 20.92 21.37C20.87 21.49 20.8 21.6 20.71 21.7C20.61 21.79 20.51 21.87 20.38 21.92C20.26 21.97 20.13 21.99 20 22L3.99 22C3.73 21.99 3.47 21.89 3.29 21.7C3.1 21.52 3 21.27 3 21L3 2.99Z" fill="#7F8796" fill-opacity="1.000000" fill-rule="nonzero"/>
	<path id="Vector" d="M11 7L13 7L13 17L11 17L11 7ZM15 11L17 11L17 17L15 17L15 11ZM7 13L9 13L9 17L7 17L7 13Z" fill="#F03C2E" fill-opacity="1.000000" fill-rule="nonzero"/>
</svg>
