<svg width="24.000000" height="24.000000" viewBox="0 0 24 24" fill="none" xmlns="http://www.w3.org/2000/svg" xmlns:xlink="http://www.w3.org/1999/xlink">
	<desc>
			Created with Pixso.
	</desc>
	<defs/>
	<path id="Vector" d="M21 3C21.26 3 21.51 3.1 21.7 3.29C21.89 3.48 22 3.73 22 4L22 11L20 11L20 5L4 5L4 19L10 19L10 21L3 21C2.73 21 2.48 20.89 2.29 20.7C2.1 20.51 2 20.26 2 20L2 4C2 3.73 2.1 3.48 2.29 3.29C2.48 3.1 2.73 3 3 3L21 3ZM21 13C21.26 13 21.51 13.1 21.7 13.29C21.89 13.48 22 13.73 22 14L22 20C22 20.26 21.89 20.51 21.7 20.7C21.51 20.89 21.26 21 21 21L13 21C12.73 21 12.48 20.89 12.29 20.7C12.1 20.51 12 20.26 12 20L12 14C12 13.73 12.1 13.48 12.29 13.29C12.48 13.1 12.73 13 13 13L21 13ZM11.5 7L9.45 9.04L11.7 11.29L10.29 12.7L8.04 10.45L6 12.5L6 7L11.5 7Z" fill="#7F8796" fill-opacity="1.000000" fill-rule="nonzero"/>
	<path id="Vector" d="M11.5 7L9.45 9.04L11.7 11.29L10.29 12.7L8.04 10.45L6 12.5L6 7L11.5 7Z" fill="#F03C2E" fill-opacity="1.000000" fill-rule="nonzero"/>
</svg>
