<svg width="41.000000" height="42.004761" viewBox="0 0 41 42.0048" fill="none" xmlns="http://www.w3.org/2000/svg" xmlns:xlink="http://www.w3.org/1999/xlink">
	<desc>
			Created with Pixso.
	</desc>
	<defs>
		<linearGradient x1="20.500000" y1="0.504761" x2="20.500000" y2="41.504761" id="paint_linear_14_384_0" gradientUnits="userSpaceOnUse">
			<stop stop-color="#FF7C72"/>
			<stop offset="1.000000" stop-color="#FF0000"/>
		</linearGradient>
	</defs>
	<path id="path" d="M38.14 41.35C37.82 41.45 37.5 41.5 37.16 41.5L3.83 41.5C3.49 41.5 3.16 41.45 2.84 41.35C2.78 41.38 2.71 41.4 2.65 41.42C2.58 41.44 2.52 41.46 2.45 41.47C2.38 41.48 2.31 41.49 2.24 41.49C2.17 41.5 2.1 41.5 2.03 41.49C1.97 41.49 1.9 41.48 1.83 41.46C1.76 41.45 1.69 41.43 1.63 41.41C1.56 41.38 1.5 41.36 1.44 41.33C1.37 41.3 1.31 41.26 1.26 41.22C1.2 41.18 1.14 41.14 1.09 41.1C1.04 41.05 0.99 41 0.94 40.95C0.89 40.9 0.85 40.84 0.81 40.79C0.77 40.73 0.73 40.67 0.7 40.61C0.67 40.54 0.64 40.48 0.61 40.41C0.59 40.35 0.56 40.28 0.55 40.21C0.53 40.14 0.52 40.07 0.51 40C0.5 39.93 0.5 39.86 0.5 39.79L0.5 29.54C0.5 29.43 0.52 29.33 0.54 29.22C0.57 29.11 0.6 29.01 0.64 28.91C0.69 28.81 0.74 28.72 0.8 28.63C0.86 28.54 0.93 28.46 1.01 28.39C1.09 28.31 1.17 28.24 1.26 28.19C1.35 28.13 1.44 28.08 1.54 28.04C1.64 28 1.74 27.97 1.85 27.95C1.95 27.93 2.05 27.91 2.16 27.91C2.27 27.91 2.37 27.93 2.48 27.95C2.58 27.97 2.68 28 2.78 28.04C2.88 28.08 2.97 28.13 3.06 28.19C3.15 28.24 3.23 28.31 3.31 28.39C3.39 28.46 3.46 28.54 3.52 28.63C3.58 28.72 3.63 28.81 3.68 28.91C3.72 29.01 3.76 29.11 3.78 29.22C3.81 29.33 3.82 29.43 3.83 29.54L3.83 34.67L37.16 34.67L37.16 29.54C37.16 29.43 37.16 29.31 37.18 29.2C37.2 29.08 37.22 28.97 37.26 28.86C37.3 28.75 37.35 28.65 37.41 28.55C37.47 28.45 37.54 28.36 37.62 28.28C37.7 28.19 37.78 28.12 37.88 28.05C37.97 27.99 38.07 27.93 38.17 27.89C38.27 27.84 38.38 27.81 38.49 27.78C38.6 27.76 38.71 27.75 38.83 27.75C38.94 27.75 39.05 27.76 39.16 27.78C39.27 27.81 39.38 27.84 39.48 27.89C39.59 27.93 39.69 27.99 39.78 28.05C39.87 28.12 39.96 28.19 40.04 28.28C40.11 28.36 40.18 28.45 40.24 28.55C40.3 28.65 40.35 28.75 40.39 28.86C40.43 28.97 40.46 29.08 40.48 29.2C40.49 29.31 40.5 29.43 40.49 29.54L40.49 39.79C40.49 39.86 40.49 39.93 40.48 40C40.47 40.07 40.46 40.14 40.44 40.21C40.42 40.28 40.4 40.35 40.38 40.41C40.35 40.48 40.32 40.54 40.29 40.61C40.26 40.67 40.22 40.73 40.18 40.79C40.14 40.84 40.09 40.9 40.05 40.95C40 41 39.95 41.05 39.9 41.1C39.84 41.14 39.79 41.19 39.73 41.22C39.67 41.26 39.61 41.3 39.55 41.33C39.49 41.36 39.42 41.39 39.36 41.41C39.29 41.43 39.22 41.45 39.16 41.46C39.09 41.48 39.02 41.49 38.95 41.49C38.88 41.5 38.81 41.5 38.74 41.5C38.67 41.49 38.61 41.49 38.54 41.47C38.47 41.46 38.4 41.44 38.34 41.42C38.27 41.4 38.2 41.38 38.14 41.35ZM6.14 18.08L14.31 18.08C14.31 18.08 12.21 2.83 32.67 0.57C33.31 0.4 35.25 0.57 34.76 0.73C18.17 7.34 21.88 17.93 21.88 17.93L30.37 17.93L18.17 31.28L6.14 18.08Z" fill="url(#paint_linear_14_384_0)" fill-opacity="1.000000" fill-rule="nonzero"/>
	<path id="path" d="M37.16 41.5L3.83 41.5C3.49 41.5 3.16 41.45 2.84 41.35C2.78 41.38 2.71 41.4 2.65 41.42C2.58 41.44 2.52 41.46 2.45 41.47C2.38 41.48 2.31 41.49 2.24 41.49C2.17 41.5 2.1 41.5 2.03 41.49C1.97 41.49 1.9 41.48 1.83 41.46C1.76 41.45 1.69 41.43 1.63 41.41C1.56 41.38 1.5 41.36 1.44 41.33C1.37 41.3 1.31 41.26 1.26 41.22C1.2 41.18 1.14 41.14 1.09 41.1C1.04 41.05 0.99 41 0.94 40.95C0.89 40.9 0.85 40.84 0.81 40.79C0.77 40.73 0.73 40.67 0.7 40.61C0.67 40.54 0.64 40.48 0.61 40.41C0.59 40.35 0.56 40.28 0.55 40.21C0.53 40.14 0.52 40.07 0.51 40C0.5 39.93 0.5 39.86 0.5 39.79L0.5 29.54C0.5 29.43 0.52 29.33 0.54 29.22C0.57 29.11 0.6 29.01 0.64 28.91C0.69 28.81 0.74 28.72 0.8 28.63C0.86 28.54 0.93 28.46 1.01 28.39C1.09 28.31 1.17 28.24 1.26 28.19C1.35 28.13 1.44 28.08 1.54 28.04C1.64 28 1.74 27.97 1.85 27.95C1.95 27.93 2.05 27.91 2.16 27.91C2.27 27.91 2.37 27.93 2.48 27.95C2.58 27.97 2.68 28 2.78 28.04C2.88 28.08 2.97 28.13 3.06 28.19C3.15 28.24 3.23 28.31 3.31 28.39C3.39 28.46 3.46 28.54 3.52 28.63C3.58 28.72 3.63 28.81 3.68 28.91C3.72 29.01 3.76 29.11 3.78 29.22C3.81 29.33 3.82 29.43 3.83 29.54L3.83 34.67L37.16 34.67L37.16 29.54C37.16 29.43 37.16 29.31 37.18 29.2C37.2 29.08 37.22 28.97 37.26 28.86C37.3 28.75 37.35 28.65 37.41 28.55C37.47 28.45 37.54 28.36 37.62 28.28C37.7 28.19 37.78 28.12 37.88 28.05C37.97 27.99 38.07 27.93 38.17 27.89C38.27 27.84 38.38 27.81 38.49 27.78C38.6 27.76 38.71 27.75 38.83 27.75C38.94 27.75 39.05 27.76 39.16 27.78C39.27 27.81 39.38 27.84 39.48 27.89C39.59 27.93 39.69 27.99 39.78 28.05C39.87 28.12 39.96 28.19 40.04 28.28C40.11 28.36 40.18 28.45 40.24 28.55C40.3 28.65 40.35 28.75 40.39 28.86C40.43 28.97 40.46 29.08 40.48 29.2C40.49 29.31 40.5 29.43 40.49 29.54L40.49 39.79C40.49 39.86 40.49 39.93 40.48 40C40.47 40.07 40.46 40.14 40.44 40.21C40.42 40.28 40.4 40.35 40.38 40.41C40.35 40.48 40.32 40.54 40.29 40.61C40.26 40.67 40.22 40.73 40.18 40.79C40.14 40.84 40.09 40.9 40.05 40.95C40 41 39.95 41.05 39.9 41.1C39.84 41.14 39.79 41.19 39.73 41.22C39.67 41.26 39.61 41.3 39.55 41.33C39.49 41.36 39.42 41.39 39.36 41.41C39.29 41.43 39.22 41.45 39.16 41.46C39.09 41.48 39.02 41.49 38.95 41.49C38.88 41.5 38.81 41.5 38.74 41.5C38.67 41.49 38.61 41.49 38.54 41.47C38.47 41.46 38.4 41.44 38.34 41.42C38.27 41.4 38.2 41.38 38.14 41.35C37.82 41.45 37.5 41.5 37.16 41.5ZM14.31 18.08C14.31 18.08 12.21 2.83 32.67 0.57C33.31 0.4 35.25 0.57 34.76 0.73C18.17 7.34 21.88 17.93 21.88 17.93L30.37 17.93L18.17 31.28L6.14 18.08L14.31 18.08Z" stroke="#8F1C1C" stroke-opacity="1.000000" stroke-width="1.000000"/>
</svg>
