<svg width="46.040039" height="39.117676" viewBox="0 0 46.04 39.1177" fill="none" xmlns="http://www.w3.org/2000/svg" xmlns:xlink="http://www.w3.org/1999/xlink">
	<desc>
			Created with Pixso.
	</desc>
	<defs>
		<linearGradient x1="33.413582" y1="15.043945" x2="33.413582" y2="38.613533" id="paint_linear_16_394_0" gradientUnits="userSpaceOnUse">
			<stop stop-color="#FF7C72"/>
			<stop offset="1.000000" stop-color="#FF0000"/>
		</linearGradient>
		<linearGradient x1="20.635433" y1="0.500000" x2="20.635433" y2="38.597107" id="paint_linear_16_395_0" gradientUnits="userSpaceOnUse">
			<stop stop-color="#FF7C72"/>
			<stop offset="1.000000" stop-color="#FF0000"/>
		</linearGradient>
	</defs>
	<path id="path" d="M33.95 31.27C31.42 31.57 29.1 29.87 28.8 27.43C28.49 24.99 30.28 22.73 32.82 22.42C35.35 22.12 37.66 23.82 37.97 26.26C38.28 28.7 36.49 30.96 33.95 31.27ZM34.26 33.49C38.06 33.01 40.77 29.66 40.29 25.99C39.81 22.33 36.35 19.72 32.6 20.2C28.8 20.68 26.09 24.03 26.57 27.69C27.01 31.36 30.46 33.97 34.26 33.49ZM21.81 29.87C21.68 29.74 21.59 29.61 21.55 29.44L21.29 27.26C21.29 26.87 21.59 26.52 21.98 26.47L23.21 26.3C23.73 26.21 24.17 25.82 24.3 25.3L24.74 23.73C24.91 23.21 24.74 22.68 24.34 22.33L23.38 21.59C23.03 21.33 22.99 20.85 23.25 20.5L24.56 18.89C24.74 18.72 24.95 18.63 25.17 18.58C25.39 18.54 25.61 18.58 25.78 18.72L26.75 19.46C27.14 19.76 27.84 19.76 28.23 19.5L29.67 18.67C30.15 18.41 30.41 17.93 30.37 17.41L30.24 16.19C30.2 15.97 30.28 15.79 30.41 15.62C30.55 15.45 30.72 15.36 30.94 15.32L33.08 15.05C33.52 14.97 33.91 15.27 33.95 15.66L34.13 16.93C34.17 17.45 34.65 17.89 35.18 17.97L36.79 18.41C37.32 18.58 37.88 18.41 38.23 18.02L38.98 17.06C39.11 16.88 39.32 16.84 39.54 16.8C39.76 16.75 39.98 16.8 40.15 16.93L41.81 18.15C42.16 18.41 42.21 18.89 41.95 19.24L41.2 20.2C40.85 20.59 40.85 21.24 41.16 21.64L41.99 23.03C42.25 23.51 42.73 23.82 43.3 23.77L44.52 23.6C44.74 23.55 44.96 23.6 45.09 23.73C45.26 23.86 45.35 24.03 45.4 24.25L45.53 26.3C45.57 26.74 45.31 27.08 44.87 27.17L43.52 27.43C42.99 27.52 42.56 27.91 42.43 28.44L41.99 30.01C41.81 30.53 41.99 31.05 42.38 31.4L43.34 32.14C43.69 32.4 43.74 32.88 43.47 33.23L42.21 34.8C41.95 35.15 41.42 35.19 41.07 34.93L40.11 34.19C39.72 33.88 39.02 33.88 38.63 34.15L37.18 34.97C36.7 35.19 36.4 35.72 36.44 36.24L36.57 37.46C36.62 37.68 36.53 37.85 36.4 38.03C36.27 38.2 36.09 38.29 35.87 38.33L33.73 38.59C33.52 38.64 33.3 38.59 33.17 38.46C32.99 38.33 32.9 38.16 32.86 37.94L32.73 36.72C32.64 36.19 32.25 35.76 31.72 35.67L30.11 35.24C29.58 35.06 29.02 35.24 28.67 35.63L27.92 36.59C27.66 36.94 27.14 36.98 26.79 36.72L25.13 35.5C24.78 35.24 24.74 34.76 25 34.41L25.74 33.45C26.09 33.06 26.09 32.4 25.78 32.01L24.95 30.62C24.69 30.14 24.17 29.83 23.64 29.87L22.38 30.01C22.2 30.05 21.98 30.01 21.81 29.87Z" fill="url(#paint_linear_16_394_0)" fill-opacity="1.000000" fill-rule="nonzero"/>
	<path id="path" d="M28.8 27.43C28.49 24.99 30.28 22.73 32.82 22.42C35.35 22.12 37.66 23.82 37.97 26.26C38.28 28.7 36.49 30.96 33.95 31.27C31.42 31.57 29.1 29.87 28.8 27.43ZM40.29 25.99C39.81 22.33 36.35 19.72 32.6 20.2C28.8 20.68 26.09 24.03 26.57 27.69C27.01 31.36 30.46 33.97 34.26 33.49C38.06 33.01 40.77 29.66 40.29 25.99ZM21.55 29.44L21.29 27.26C21.29 26.87 21.59 26.52 21.98 26.47L23.21 26.3C23.73 26.21 24.17 25.82 24.3 25.3L24.74 23.73C24.91 23.21 24.74 22.68 24.34 22.33L23.38 21.59C23.03 21.33 22.99 20.85 23.25 20.5L24.56 18.89C24.74 18.72 24.95 18.63 25.17 18.58C25.39 18.54 25.61 18.58 25.78 18.72L26.75 19.46C27.14 19.76 27.84 19.76 28.23 19.5L29.67 18.67C30.15 18.41 30.41 17.93 30.37 17.41L30.24 16.19C30.2 15.97 30.28 15.79 30.41 15.62C30.55 15.45 30.72 15.36 30.94 15.32L33.08 15.05C33.52 14.97 33.91 15.27 33.95 15.66L34.13 16.93C34.17 17.45 34.65 17.89 35.18 17.97L36.79 18.41C37.32 18.58 37.88 18.41 38.23 18.02L38.98 17.06C39.11 16.88 39.32 16.84 39.54 16.8C39.76 16.75 39.98 16.8 40.15 16.93L41.81 18.15C42.16 18.41 42.21 18.89 41.95 19.24L41.2 20.2C40.85 20.59 40.85 21.24 41.16 21.64L41.99 23.03C42.25 23.51 42.73 23.82 43.3 23.77L44.52 23.6C44.74 23.55 44.96 23.6 45.09 23.73C45.26 23.86 45.35 24.03 45.4 24.25L45.53 26.3C45.57 26.74 45.31 27.08 44.87 27.17L43.52 27.43C42.99 27.52 42.56 27.91 42.43 28.44L41.99 30.01C41.81 30.53 41.99 31.05 42.38 31.4L43.34 32.14C43.69 32.4 43.74 32.88 43.47 33.23L42.21 34.8C41.95 35.15 41.42 35.19 41.07 34.93L40.11 34.19C39.72 33.88 39.02 33.88 38.63 34.15L37.18 34.97C36.7 35.19 36.4 35.72 36.44 36.24L36.57 37.46C36.62 37.68 36.53 37.85 36.4 38.03C36.27 38.2 36.09 38.29 35.87 38.33L33.73 38.59C33.52 38.64 33.3 38.59 33.17 38.46C32.99 38.33 32.9 38.16 32.86 37.94L32.73 36.72C32.64 36.19 32.25 35.76 31.72 35.67L30.11 35.24C29.58 35.06 29.02 35.24 28.67 35.63L27.92 36.59C27.66 36.94 27.14 36.98 26.79 36.72L25.13 35.5C24.78 35.24 24.74 34.76 25 34.41L25.74 33.45C26.09 33.06 26.09 32.4 25.78 32.01L24.95 30.62C24.69 30.14 24.17 29.83 23.64 29.87L22.38 30.01C22.2 30.05 21.98 30.01 21.81 29.87C21.68 29.74 21.59 29.61 21.55 29.44Z" stroke="#8F1C1C" stroke-opacity="1.000000" stroke-width="1.000000"/>
	<path id="path" d="M36.75 0.5L4.56 0.5C2.33 0.5 0.5 2.33 0.5 4.55L0.5 34.54C0.5 36.76 2.33 38.59 4.56 38.59L21.68 38.59L21.68 33.97L7.7 33.97C6.39 33.97 5.3 32.88 5.3 31.57L5.3 15.53C5.3 14.23 6.39 13.14 7.7 13.14L33.6 13.14C34.83 13.14 35.83 14.05 35.96 15.23L40.77 15.23L40.77 4.51C40.77 2.28 38.98 0.5 36.75 0.5ZM9.58 8.47C9.58 9.04 9.14 9.47 8.58 9.47L6.22 9.47C5.65 9.47 5.21 9.04 5.21 8.47L5.21 6.34C5.21 5.77 5.65 5.33 6.22 5.33L8.58 5.33C9.14 5.33 9.58 5.77 9.58 6.34L9.58 8.47ZM20.32 8.47C20.32 9.04 19.89 9.47 19.32 9.47L13.6 9.47C13.03 9.47 12.59 9.04 12.59 8.47L12.59 6.34C12.59 5.77 13.03 5.33 13.6 5.33L19.32 5.33C19.89 5.33 20.32 5.77 20.32 6.34L20.32 8.47Z" fill="url(#paint_linear_16_395_0)" fill-opacity="1.000000" fill-rule="nonzero"/>
	<path id="path" d="M4.56 0.5C2.33 0.5 0.5 2.33 0.5 4.55L0.5 34.54C0.5 36.76 2.33 38.59 4.56 38.59L21.68 38.59L21.68 33.97L7.7 33.97C6.39 33.97 5.3 32.88 5.3 31.57L5.3 15.53C5.3 14.23 6.39 13.14 7.7 13.14L33.6 13.14C34.83 13.14 35.83 14.05 35.96 15.23L40.77 15.23L40.77 4.51C40.77 2.28 38.98 0.5 36.75 0.5L4.56 0.5ZM8.58 9.47L6.22 9.47C5.65 9.47 5.21 9.04 5.21 8.47L5.21 6.34C5.21 5.77 5.65 5.33 6.22 5.33L8.58 5.33C9.14 5.33 9.58 5.77 9.58 6.34L9.58 8.47C9.58 9.04 9.14 9.47 8.58 9.47ZM19.32 9.47L13.6 9.47C13.03 9.47 12.59 9.04 12.59 8.47L12.59 6.34C12.59 5.77 13.03 5.33 13.6 5.33L19.32 5.33C19.89 5.33 20.32 5.77 20.32 6.34L20.32 8.47C20.32 9.04 19.89 9.47 19.32 9.47Z" stroke="#8F1C1C" stroke-opacity="1.000000" stroke-width="1.000000"/>
</svg>
