<svg width="43.010254" height="45.372681" viewBox="0 0 43.0103 45.3727" fill="none" xmlns="http://www.w3.org/2000/svg" xmlns:xlink="http://www.w3.org/1999/xlink">
	<desc>
			Created with Pixso.
	</desc>
	<defs>
		<linearGradient x1="21.498636" y1="0.518311" x2="21.498636" y2="44.854435" id="paint_linear_13_1687_0" gradientUnits="userSpaceOnUse">
			<stop stop-color="#FF7C72"/>
			<stop offset="1.000000" stop-color="#FF0000"/>
		</linearGradient>
	</defs>
	<path id="Vector" d="M26.34 34.98L14.42 28.48C13.27 29.61 11.82 30.39 10.23 30.7C8.65 31.01 7.01 30.84 5.52 30.22C4.03 29.6 2.76 28.55 1.87 27.21C0.97 25.87 0.5 24.29 0.5 22.68C0.5 21.07 0.97 19.49 1.87 18.15C2.76 16.81 4.03 15.76 5.52 15.14C7.01 14.52 8.65 14.36 10.23 14.67C11.82 14.98 13.27 15.75 14.42 16.89L26.34 10.38C25.93 8.46 26.22 6.46 27.17 4.74C28.12 3.02 29.65 1.7 31.49 1.02C33.33 0.34 35.35 0.34 37.19 1.03C39.03 1.72 40.55 3.05 41.49 4.77C42.43 6.49 42.72 8.49 42.31 10.41C41.89 12.33 40.8 14.03 39.23 15.21C37.66 16.39 35.72 16.96 33.77 16.83C31.81 16.69 29.97 15.86 28.57 14.48L16.65 20.98C16.89 22.1 16.89 23.26 16.65 24.38L28.57 30.89C29.97 29.5 31.81 28.67 33.77 28.54C35.72 28.4 37.66 28.98 39.23 30.15C40.8 31.33 41.89 33.04 42.31 34.95C42.72 36.87 42.43 38.87 41.49 40.6C40.55 42.32 39.03 43.64 37.19 44.33C35.35 45.02 33.33 45.02 31.49 44.34C29.65 43.66 28.12 42.34 27.17 40.62C26.22 38.9 25.93 36.9 26.34 34.98Z" fill="url(#paint_linear_13_1687_0)" fill-opacity="1.000000" fill-rule="nonzero"/>
	<path id="Vector" d="M14.42 28.48C13.27 29.61 11.82 30.39 10.23 30.7C8.65 31.01 7.01 30.84 5.52 30.22C4.03 29.6 2.76 28.55 1.87 27.21C0.97 25.87 0.5 24.29 0.5 22.68C0.5 21.07 0.97 19.49 1.87 18.15C2.76 16.81 4.03 15.76 5.52 15.14C7.01 14.52 8.65 14.36 10.23 14.67C11.82 14.98 13.27 15.75 14.42 16.89L26.34 10.38C25.93 8.46 26.22 6.46 27.17 4.74C28.12 3.02 29.65 1.7 31.49 1.02C33.33 0.34 35.35 0.34 37.19 1.03C39.03 1.72 40.55 3.05 41.49 4.77C42.43 6.49 42.72 8.49 42.31 10.41C41.89 12.33 40.8 14.03 39.23 15.21C37.66 16.39 35.72 16.96 33.77 16.83C31.81 16.69 29.97 15.86 28.57 14.48L16.65 20.98C16.89 22.1 16.89 23.26 16.65 24.38L28.57 30.89C29.97 29.5 31.81 28.67 33.77 28.54C35.72 28.4 37.66 28.98 39.23 30.15C40.8 31.33 41.89 33.04 42.31 34.95C42.72 36.87 42.43 38.87 41.49 40.6C40.55 42.32 39.03 43.64 37.19 44.33C35.35 45.02 33.33 45.02 31.49 44.34C29.65 43.66 28.12 42.34 27.17 40.62C26.22 38.9 25.93 36.9 26.34 34.98L14.42 28.48Z" stroke="#8F1C1C" stroke-opacity="1.000000" stroke-width="1.000000"/>
</svg>
