<svg width="36.184570" height="39.001587" viewBox="0 0 36.1846 39.0016" fill="none" xmlns="http://www.w3.org/2000/svg" xmlns:xlink="http://www.w3.org/1999/xlink">
	<desc>
			Created with Pixso.
	</desc>
	<defs>
		<linearGradient x1="17.997314" y1="0.500000" x2="17.997314" y2="38.500000" id="paint_linear_16_381_0" gradientUnits="userSpaceOnUse">
			<stop stop-color="#FF7C72"/>
			<stop offset="1.000000" stop-color="#FF0000"/>
		</linearGradient>
	</defs>
	<path id="path" d="M22.68 0.5C17.59 0.5 13 3.5 10.91 8.13C8.86 12.76 9.69 18.19 13.11 21.95L9.54 26.36L5.59 23.17C5.29 22.94 4.87 22.98 4.64 23.28L3.2 25.07C2.97 25.37 3.01 25.79 3.31 26.02L7.26 29.21L5.86 30.95L3.01 28.71C2.86 28.6 2.71 28.56 2.52 28.56C2.33 28.56 2.17 28.67 2.06 28.79L0.62 30.57C0.54 30.72 0.46 30.88 0.5 31.07C0.54 31.26 0.62 31.41 0.73 31.52L3.54 33.8L3.16 34.26C2.9 34.6 2.78 35.02 2.82 35.47C2.86 35.89 3.09 36.31 3.43 36.57L5.36 38.13C6.05 38.7 7.07 38.59 7.61 37.9L17.78 25.29C22.61 27.27 28.12 26.13 31.76 22.45C35.41 18.76 36.51 13.22 34.5 8.43C32.56 3.61 27.89 0.5 22.68 0.5ZM22.68 8.89C24.51 8.89 26.1 9.99 26.82 11.66C27.51 13.33 27.13 15.27 25.87 16.52C24.58 17.81 22.68 18.19 21.01 17.47C19.34 16.79 18.24 15.15 18.24 13.33C18.24 12.15 18.7 11.01 19.53 10.18C20.37 9.34 21.51 8.89 22.68 8.89Z" fill="url(#paint_linear_16_381_0)" fill-opacity="1.000000" fill-rule="nonzero"/>
	<path id="path" d="M10.91 8.13C8.86 12.76 9.69 18.19 13.11 21.95L9.54 26.36L5.59 23.17C5.29 22.94 4.87 22.98 4.64 23.28L3.2 25.07C2.97 25.37 3.01 25.79 3.31 26.02L7.26 29.21L5.86 30.95L3.01 28.71C2.86 28.6 2.71 28.56 2.52 28.56C2.33 28.56 2.17 28.67 2.06 28.79L0.62 30.57C0.54 30.72 0.46 30.88 0.5 31.07C0.54 31.26 0.62 31.41 0.73 31.52L3.54 33.8L3.16 34.26C2.9 34.6 2.78 35.02 2.82 35.47C2.86 35.89 3.09 36.31 3.43 36.57L5.36 38.13C6.05 38.7 7.07 38.59 7.61 37.9L17.78 25.29C22.61 27.27 28.12 26.13 31.76 22.45C35.41 18.76 36.51 13.22 34.5 8.43C32.56 3.61 27.89 0.5 22.68 0.5C17.59 0.5 13 3.5 10.91 8.13ZM26.82 11.66C27.51 13.33 27.13 15.27 25.87 16.52C24.58 17.81 22.68 18.19 21.01 17.47C19.34 16.79 18.24 15.15 18.24 13.33C18.24 12.15 18.7 11.01 19.53 10.18C20.37 9.34 21.51 8.89 22.68 8.89C24.51 8.89 26.1 9.99 26.82 11.66Z" stroke="#8F1C1C" stroke-opacity="1.000000" stroke-width="1.000000"/>
</svg>
