<svg width="43.417358" height="44.140015" viewBox="0 0 43.4174 44.14" fill="none" xmlns="http://www.w3.org/2000/svg" xmlns:xlink="http://www.w3.org/1999/xlink">
	<desc>
			Created with Pixso.
	</desc>
	<defs>
		<linearGradient x1="21.707626" y1="27.540161" x2="21.707626" y2="43.639763" id="paint_linear_16_387_0" gradientUnits="userSpaceOnUse">
			<stop stop-color="#FF7C72"/>
			<stop offset="1.000000" stop-color="#FF0000"/>
		</linearGradient>
		<linearGradient x1="23.588490" y1="3.152806" x2="16.599449" y2="27.664127" id="paint_linear_16_388_0" gradientUnits="userSpaceOnUse">
			<stop stop-color="#FF7C72"/>
			<stop offset="1.000000" stop-color="#FF0000"/>
		</linearGradient>
	</defs>
	<path id="path" d="M39.3 28.48C37.87 29.34 33.56 33.02 31.99 33.2C29.1 33.27 26.21 33.16 23.34 32.81C20 32.49 21.28 31.17 21.82 31C22.36 30.84 28.77 30.49 30.94 30.24C32.88 30.03 32.6 28.13 30.43 28.09C28.26 28.02 18.48 27.37 15.12 27.58C11.79 27.78 6.96 32.16 6.96 32.16L7.14 32.86L14.19 39.06L15.12 38.99C16.13 38.44 17.18 38 18.3 37.72C19.74 37.42 27.68 38.28 30.41 37.88C33.16 37.49 40.18 31.61 41.77 30.31C42.52 29.68 43.08 28.8 42.87 28.55C42.12 27.41 40.21 27.85 39.27 28.41L39.3 28.48ZM5.51 33.34C5.02 32.86 4.23 32.81 3.69 33.25C3.25 33.6 1.4 35.03 0.87 35.4C0.05 35.96 0.77 36.89 1.24 37.33C1.71 37.77 6.68 42.35 7.45 43.09C7.68 43.39 8.03 43.58 8.4 43.62C8.78 43.67 9.15 43.56 9.45 43.32L9.52 43.32C10.08 42.86 11.37 41.75 12.18 41.17C12.53 41.03 12.77 40.71 12.79 40.36C12.84 39.99 12.65 39.64 12.35 39.43C11.76 38.85 6.16 33.88 5.51 33.34Z" fill="url(#paint_linear_16_387_0)" fill-opacity="1.000000" fill-rule="nonzero"/>
	<path id="path" d="M31.99 33.2C29.1 33.27 26.21 33.16 23.34 32.81C20 32.49 21.28 31.17 21.82 31C22.36 30.84 28.77 30.49 30.94 30.24C32.88 30.03 32.6 28.13 30.43 28.09C28.26 28.02 18.48 27.37 15.12 27.58C11.79 27.78 6.96 32.16 6.96 32.16L7.14 32.86L14.19 39.06L15.12 38.99C16.13 38.44 17.18 38 18.3 37.72C19.74 37.42 27.68 38.28 30.41 37.88C33.16 37.49 40.18 31.61 41.77 30.31C42.52 29.68 43.08 28.8 42.87 28.55C42.12 27.41 40.21 27.85 39.27 28.41L39.3 28.48C37.87 29.34 33.56 33.02 31.99 33.2ZM3.69 33.25C3.25 33.6 1.4 35.03 0.87 35.4C0.05 35.96 0.77 36.89 1.24 37.33C1.71 37.77 6.68 42.35 7.45 43.09C7.68 43.39 8.03 43.58 8.4 43.62C8.78 43.67 9.15 43.56 9.45 43.32L9.52 43.32C10.08 42.86 11.37 41.75 12.18 41.17C12.53 41.03 12.77 40.71 12.79 40.36C12.84 39.99 12.65 39.64 12.35 39.43C11.76 38.85 6.16 33.88 5.51 33.34C5.02 32.86 4.23 32.81 3.69 33.25Z" stroke="#8F1C1C" stroke-opacity="1.000000" stroke-width="1.000000"/>
	<path id="path" d="M26.59 3.99C23.33 3.08 19.83 4.18 17.64 6.8C15.47 9.41 15.01 13.07 16.51 16.11L13.41 18.31L11.46 15.54C11.31 15.34 11.03 15.29 10.83 15.44L9.57 16.33C9.37 16.49 9.32 16.76 9.47 16.96L11.42 19.73L10.2 20.61L8.78 18.65C8.71 18.55 8.62 18.5 8.49 18.46C8.37 18.43 8.25 18.47 8.16 18.53L6.91 19.42C6.83 19.5 6.75 19.59 6.74 19.72C6.73 19.85 6.75 19.96 6.8 20.05L8.19 22.03L7.86 22.25C7.63 22.43 7.48 22.67 7.42 22.98C7.36 23.25 7.43 23.56 7.6 23.8L8.56 25.15C8.89 25.64 9.57 25.75 10.04 25.41L18.89 19.11C21.62 21.25 25.36 21.51 28.38 19.79C31.4 18.07 33.12 14.69 32.71 11.24C32.36 7.78 29.93 4.93 26.59 3.99ZM25.05 9.41C26.22 9.74 27.04 10.73 27.2 11.94C27.33 13.14 26.73 14.32 25.69 14.91C24.63 15.51 23.34 15.41 22.4 14.64C21.45 13.9 21.05 12.65 21.38 11.47C21.6 10.71 22.1 10.06 22.79 9.67C23.48 9.28 24.29 9.19 25.05 9.41Z" fill="url(#paint_linear_16_388_0)" fill-opacity="1.000000" fill-rule="nonzero"/>
	<path id="path" d="M17.64 6.8C15.47 9.41 15.01 13.07 16.51 16.11L13.41 18.31L11.46 15.54C11.31 15.34 11.03 15.29 10.83 15.44L9.57 16.33C9.37 16.49 9.32 16.76 9.47 16.96L11.42 19.73L10.2 20.61L8.78 18.65C8.71 18.55 8.62 18.5 8.49 18.46C8.37 18.43 8.25 18.47 8.16 18.53L6.91 19.42C6.83 19.5 6.75 19.59 6.74 19.72C6.73 19.85 6.75 19.96 6.8 20.05L8.19 22.03L7.86 22.25C7.63 22.43 7.48 22.67 7.42 22.98C7.36 23.25 7.43 23.56 7.6 23.8L8.56 25.15C8.89 25.64 9.57 25.75 10.04 25.41L18.89 19.11C21.62 21.25 25.36 21.51 28.38 19.79C31.4 18.07 33.12 14.69 32.71 11.24C32.36 7.78 29.93 4.93 26.59 3.99C23.33 3.08 19.83 4.18 17.64 6.8ZM27.2 11.94C27.33 13.14 26.73 14.32 25.69 14.91C24.63 15.51 23.34 15.41 22.4 14.64C21.45 13.9 21.05 12.65 21.38 11.47C21.6 10.71 22.1 10.06 22.79 9.67C23.48 9.28 24.29 9.19 25.05 9.41C26.22 9.74 27.04 10.73 27.2 11.94Z" stroke="#8F1C1C" stroke-opacity="1.000000" stroke-width="1.000000"/>
</svg>
